<?xml version="1.0" encoding="UTF-8"?>
<svg version="1.1" xmlns="http://www.w3.org/2000/svg" width="500" height="500">
<path d="M0 0 C1.18480453 -0.00960754 2.36960907 -0.01921509 3.59031677 -0.02911377 C5.50446129 -0.03548859 5.50446129 -0.03548859 7.45727539 -0.04199219 C9.4286422 -0.0505423 9.4286422 -0.0505423 11.43983459 -0.05926514 C14.21965927 -0.06975329 16.99945521 -0.07561062 19.77929688 -0.07910156 C23.33467788 -0.08458999 26.88967664 -0.10863413 30.44493771 -0.13707352 C33.84487627 -0.16021272 37.24476216 -0.16214974 40.64477539 -0.16699219 C41.9188475 -0.17933899 43.19291962 -0.19168579 44.50559998 -0.20440674 C45.69355667 -0.20140564 46.88151337 -0.19840454 48.10546875 -0.1953125 C49.14819443 -0.19895813 50.1909201 -0.20260376 51.26524353 -0.20635986 C54.59268141 0.22236679 56.4335109 1.17410616 59.11743164 3.16113281 C61.28918645 6.41876503 61.57787162 7.38552494 61.11743164 11.16113281 C59.31571701 14.24978647 58.57319174 15.00921278 55.11743164 16.16113281 C53.3294802 16.26229246 51.53808494 16.30681917 49.74731445 16.31884766 C48.64897278 16.3291098 47.5506311 16.33937195 46.41900635 16.34994507 C44.63777374 16.36089706 44.63777374 16.36089706 42.82055664 16.37207031 C40.31013349 16.40014227 37.79971691 16.42880676 35.28930664 16.45800781 C31.32837124 16.4992471 27.36755803 16.53613197 23.40649414 16.5625 C19.58592327 16.59014385 15.76591147 16.63602111 11.94555664 16.68457031 C10.76616516 16.68782318 9.58677368 16.69107605 8.37164307 16.69442749 C0.95881004 16.8049675 -4.78074751 17.05931196 -10.25756836 22.53613281 C-12.8833995 26.77786005 -13.00777815 30.85764391 -13.01628113 35.76449585 C-13.02054611 36.88033554 -13.0248111 37.99617523 -13.02920532 39.14582825 C-13.02852554 40.96784004 -13.02852554 40.96784004 -13.02783203 42.82666016 C-13.03119064 44.11337112 -13.03454926 45.40008209 -13.03800964 46.7257843 C-13.04682808 50.24857792 -13.04918684 53.77134724 -13.04982543 57.29415083 C-13.05053714 59.4971552 -13.05267374 61.70015343 -13.05532265 63.90315628 C-13.06456881 71.59462119 -13.06865843 79.28606878 -13.06787109 86.97753906 C-13.06727044 94.1376449 -13.07782173 101.29767536 -13.09361476 108.45776212 C-13.10670644 114.613339 -13.11205431 120.7688913 -13.11141568 126.92448199 C-13.11116118 130.59727863 -13.11398592 134.27000826 -13.12459373 137.94279099 C-13.13610721 142.04085158 -13.13151794 146.13874407 -13.12548828 150.23681641 C-13.13391754 152.05275551 -13.13391754 152.05275551 -13.14251709 153.90538025 C-13.11150636 162.19670997 -12.95826369 168.90674056 -6.88256836 175.16113281 C-3.6021484 177.23352448 -1.0111275 177.40732598 2.83227539 177.40063477 C3.98026611 177.404366 5.12825684 177.40809723 6.31103516 177.41194153 C8.16426392 177.40574043 8.16426392 177.40574043 10.05493164 177.39941406 C12.66691604 177.41482818 15.27889531 177.4311314 17.89086914 177.44824219 C22.01234107 177.4669674 26.13361985 177.4750768 30.25512695 177.46655273 C34.23034128 177.45957868 38.20483968 177.4919879 42.17993164 177.52441406 C43.41541748 177.51420731 44.65090332 177.50400055 45.92382812 177.4934845 C47.07181885 177.50667221 48.21980957 177.51985992 49.40258789 177.53344727 C50.41200439 177.53407669 51.4214209 177.53470612 52.46142578 177.53535461 C56.10128517 178.39293731 57.07372955 180.11573207 59.11743164 183.16113281 C59.81481445 184.13308594 60.51219727 185.10503906 61.23071289 186.10644531 C65.3493347 192.06125553 69.36220103 198.0514412 73.21899414 204.18066406 C75.58139202 207.88953152 77.99792942 211.56014319 80.42993164 215.22363281 C80.86297607 215.87960449 81.29602051 216.53557617 81.7421875 217.21142578 C83.40919994 219.71473758 84.98501577 222.02871694 87.11743164 224.16113281 C87.68139648 223.59193115 88.24536133 223.02272949 88.82641602 222.4362793 C91.42069933 219.82101437 94.01903087 217.20980662 96.61743164 214.59863281 C97.50430664 213.70337891 98.39118164 212.808125 99.30493164 211.88574219 C103.06603179 208.11081447 106.80112309 204.36222921 110.86743164 200.91503906 C117.48921655 195.23814738 123.48693701 188.85623994 129.61743164 182.66113281 C144.01905317 168.10772505 144.01905317 168.10772505 150.13208008 162.92822266 C152.73808605 160.6087107 155.18929986 158.14501735 157.64086914 155.66503906 C158.11852722 155.18187225 158.5961853 154.69870544 159.08831787 154.20089722 C161.06502078 152.19645562 163.03783443 150.18827191 165.0065918 148.17602539 C166.46371607 146.68888899 167.92684922 145.20788276 169.39086914 143.72753906 C170.25115723 142.8504126 171.11144531 141.97328613 171.99780273 141.06958008 C174.11743164 139.16113281 174.11743164 139.16113281 176.11743164 139.16113281 C176.46354492 138.30841797 176.46354492 138.30841797 176.81665039 137.43847656 C178.44864369 134.58126307 180.44422231 132.87393909 182.92993164 130.72363281 C186.45238604 127.63447599 189.86028462 124.5268514 193.11743164 121.16113281 C187.07654425 120.1249222 181.09021881 119.20272309 174.97680664 118.75878906 C173.64891113 118.6551001 173.64891113 118.6551001 172.29418945 118.54931641 C170.5344417 118.41738348 168.77319804 118.30387483 167.01098633 118.21044922 C162.6585866 117.87124571 160.61053623 117.54136564 157.06274414 114.80566406 C155.11743164 112.16113281 155.11743164 112.16113281 154.49243164 108.66113281 C155.28916269 104.19943896 156.46422273 102.80387968 160.11743164 100.16113281 C165.8674486 98.88253946 171.08724524 99.34530592 176.86743164 99.97363281 C183.35902679 100.64043982 189.8358429 101.22888547 196.35180664 101.60253906 C197.55998047 101.67561279 198.7681543 101.74868652 200.01293945 101.82397461 C202.37609296 101.96306838 204.74008497 102.08871298 207.10473633 102.19946289 C217.97648929 102.87229966 217.97648929 102.87229966 222.11743164 107.16113281 C224.62160592 112.89821203 225.84835401 119.0511828 226.94165039 125.18457031 C227.1683416 126.42480453 227.1683416 126.42480453 227.39961243 127.69009399 C227.71461268 129.42559838 228.0261951 131.16172636 228.33447266 132.8984375 C228.80290819 135.52478802 229.28861879 138.14754735 229.77563477 140.77050781 C233.81577852 162.98596256 233.81577852 162.98596256 230.67993164 168.84863281 C226.95793184 170.75502295 223.18060353 171.31284174 219.11743164 170.16113281 C210.2396549 161.25159301 210.69176469 143.05890597 209.11743164 131.16113281 C200.65049742 137.79183974 193.13032182 144.97259893 185.63623047 152.68334961 C184.26806374 154.0873903 182.89401984 155.48569656 181.51977539 156.88378906 C180.72047607 157.7062915 179.92117676 158.52879395 179.09765625 159.3762207 C177.11743164 161.16113281 177.11743164 161.16113281 175.11743164 161.16113281 C174.84930664 161.80050781 174.58118164 162.43988281 174.30493164 163.09863281 C173.11743164 165.16113281 173.11743164 165.16113281 170.11743164 166.16113281 C169.78743164 166.82113281 169.45743164 167.48113281 169.11743164 168.16113281 C168.78743164 168.82113281 168.45743164 169.48113281 168.11743164 170.16113281 C167.12743164 170.49113281 166.13743164 170.82113281 165.11743164 171.16113281 C164.78743164 171.82113281 164.45743164 172.48113281 164.11743164 173.16113281 C163.78743164 173.82113281 163.45743164 174.48113281 163.11743164 175.16113281 C162.12743164 175.49113281 161.13743164 175.82113281 160.11743164 176.16113281 C159.43242268 177.48513619 158.76781609 178.81978189 158.11743164 180.16113281 C156.47314453 181.78198242 156.47314453 181.78198242 154.52758789 183.37597656 C149.94661824 187.25393124 145.7584213 191.4440619 141.55493164 195.72363281 C137.04662519 200.31309689 132.5259146 204.74344817 127.59375 208.8762207 C125.75900356 210.47309031 124.2140368 212.21387504 122.67993164 214.09863281 C119.84074725 217.43295091 116.8280287 220.22350922 113.48461914 223.04003906 C110.98722824 225.27780022 108.66296421 227.63230198 106.32568359 230.03466797 C93.46882721 243.21675854 93.46882721 243.21675854 85.99243164 243.72363281 C78.53988378 242.64181135 74.89240514 238.2036569 70.48461914 232.50097656 C67.3487328 228.17499791 64.48414756 223.6679613 61.61743164 219.16113281 C61.07650879 218.31156006 60.53558594 217.4619873 59.97827148 216.58666992 C59.47763184 215.78624268 58.97699219 214.98581543 58.46118164 214.16113281 C58.00936523 213.43925781 57.55754883 212.71738281 57.09204102 211.97363281 C56.11743164 210.16113281 56.11743164 210.16113281 56.11743164 208.16113281 C55.45743164 208.16113281 54.79743164 208.16113281 54.11743164 208.16113281 C52.39086914 205.82519531 52.39086914 205.82519531 50.49243164 202.78613281 C49.86079102 201.78839844 49.22915039 200.79066406 48.57836914 199.76269531 C47.11743164 197.16113281 47.11743164 197.16113281 47.11743164 195.16113281 C46.52354141 195.16557404 45.92965118 195.17001526 45.31776428 195.17459106 C39.10412008 195.21903757 32.89052147 195.24908733 26.67675781 195.27099609 C24.36163497 195.28101757 22.04652466 195.29463838 19.73144531 195.31201172 C16.3926279 195.33642983 13.0539787 195.34765477 9.71508789 195.35644531 C8.68972427 195.36676788 7.66436066 195.37709045 6.60792542 195.38772583 C-4.73161127 195.38947316 -13.3395699 193.50456269 -21.67553711 185.42285156 C-27.45223904 178.9900304 -29.98775227 172.77204593 -30.04319763 164.18017578 C-30.05324326 162.9551384 -30.06328888 161.73010101 -30.07363892 160.46794128 C-30.07966866 159.11306824 -30.08555368 157.75819455 -30.09130859 156.40332031 C-30.10085152 154.97394077 -30.11074288 153.54456351 -30.12095642 152.1151886 C-30.15230211 147.42219775 -30.17260936 142.72918943 -30.19116211 138.03613281 C-30.19445943 137.23623051 -30.19775675 136.4363282 -30.20115399 135.61218643 C-30.23194212 128.05983834 -30.25863436 120.50748609 -30.27557278 112.95509338 C-30.29744755 103.31657639 -30.33935403 93.67861866 -30.40901035 84.04032516 C-30.45639098 77.25200605 -30.48052528 70.46383702 -30.48776966 63.67535782 C-30.49270626 59.62711229 -30.50759432 55.57949753 -30.54751396 51.53143311 C-30.58464211 47.71609766 -30.59270586 43.90174634 -30.57950783 40.08626366 C-30.57956135 38.69478587 -30.58968305 37.30326155 -30.61125946 35.91195107 C-30.7602354 25.7527879 -29.09796944 16.92942349 -22.07596493 9.16300964 C-15.61370512 3.21197726 -8.77191271 0.05748432 0 0 Z " fill="#5CE2E7" transform="translate(148.882568359375,70.8388671875)"/>
<path d="M0 0 C2.7013698 2.90432102 3.37675725 4.84365143 3.39440918 8.7752533 C3.40575897 9.73273972 3.41710876 10.69022614 3.42880249 11.67672729 C3.42440659 13.24234909 3.42440659 13.24234909 3.41992188 14.83959961 C3.42839142 15.9440593 3.43686096 17.04851898 3.44558716 18.18644714 C3.46900996 21.84186275 3.46997804 25.49685874 3.46875 29.15234375 C3.47584822 31.69055857 3.48354672 34.22877178 3.49182129 36.76698303 C3.5052782 42.08909185 3.5070102 47.41104535 3.50097656 52.7331543 C3.4943353 58.88067773 3.51720403 65.02760123 3.55429029 71.17500299 C3.58870131 77.09423446 3.59532305 83.01328102 3.59120178 88.93261909 C3.59289706 91.4488561 3.60257849 93.96510071 3.62034607 96.48127556 C3.64244803 99.99833826 3.63287673 103.51394869 3.61523438 107.03100586 C3.63512924 108.59359131 3.63512924 108.59359131 3.65542603 110.18774414 C3.57267179 117.27765584 3.57267179 117.27765584 0.52404785 121.12306213 C-0.30888794 121.74245163 -1.14182373 122.36184113 -2 123 C-2.495 123.495 -2.495 123.495 -3 124 C-7.27765145 123.83857919 -9.33316458 123.68438372 -12.375 120.5625 C-14.50010952 117.21136576 -15.12591648 115.53741642 -15.14044189 111.61711121 C-15.14615204 110.69603073 -15.15186218 109.77495026 -15.15774536 108.82595825 C-15.15886322 107.81242279 -15.15998108 106.79888733 -15.16113281 105.75463867 C-15.16609772 104.68948532 -15.17106262 103.62433197 -15.17617798 102.52690125 C-15.19082579 98.99058393 -15.1976061 95.45431147 -15.203125 91.91796875 C-15.20887445 89.46657815 -15.21463221 87.01518756 -15.22039795 84.563797 C-15.2309155 79.41809885 -15.23675318 74.27241637 -15.24023438 69.12670898 C-15.24571956 62.52894553 -15.26974516 55.93138841 -15.29820633 49.33368969 C-15.31681858 44.2679636 -15.32203757 39.20228732 -15.32357025 34.13652992 C-15.32660068 31.70403223 -15.33464225 29.2715355 -15.34775543 26.83907127 C-15.36478543 23.43706899 -15.36294283 20.03557239 -15.35644531 16.63354492 C-15.3656601 15.62608215 -15.37487488 14.61861938 -15.3843689 13.58062744 C-15.34635937 7.23650705 -14.613251 3.613251 -10 -1 C-6.25929352 -2.60315992 -3.61324902 -1.61443041 0 0 Z " fill="#09FA87" transform="translate(285,96)"/>
<path d="M0 0 C0.89203125 0.10183594 1.7840625 0.20367187 2.703125 0.30859375 C3.37859375 0.39238281 4.0540625 0.47617187 4.75 0.5625 C4.75 1.2225 4.75 1.8825 4.75 2.5625 C7.39498351 2.10907425 9.58829059 1.6433547 12 0.4375 C16.06072873 -0.85455005 19.64456295 -0.47873403 23.75 0.5625 C27.21121174 2.72575734 28.45741598 3.68474793 29.75 7.5625 C29.83544291 8.89778807 29.86774625 10.23693888 29.86352539 11.57495117 C29.86344986 12.37555466 29.86337433 13.17615814 29.86329651 14.00102234 C29.85813522 14.86048965 29.85297394 15.71995697 29.84765625 16.60546875 C29.8462413 17.4890657 29.84482635 18.37266266 29.84336853 19.28303528 C29.83777069 22.10539128 29.82521861 24.92766797 29.8125 27.75 C29.80748472 29.66341031 29.80292186 31.57682187 29.79882812 33.49023438 C29.78780197 38.18102014 29.77053883 42.87174663 29.75 47.5625 C25.46 47.5625 21.17 47.5625 16.75 47.5625 C16.75 35.3525 16.75 23.1425 16.75 10.5625 C14.77 10.8925 12.79 11.2225 10.75 11.5625 C10.75523682 12.61751709 10.76047363 13.67253418 10.76586914 14.75952148 C10.78391901 18.6600663 10.79543195 22.5606074 10.80493164 26.46118164 C10.8099719 28.15194316 10.81680405 29.84270029 10.82543945 31.53344727 C10.83751857 33.95850707 10.84323123 36.38350944 10.84765625 38.80859375 C10.85281754 39.56901474 10.85797882 40.32943573 10.86329651 41.11289978 C10.86349238 42.9298257 10.81197277 44.74663127 10.75 46.5625 C9.75 47.5625 9.75 47.5625 6.84375 47.6953125 C5.6578125 47.69273437 4.471875 47.69015625 3.25 47.6875 C2.0640625 47.69007813 0.878125 47.69265625 -0.34375 47.6953125 C-3.25 47.5625 -3.25 47.5625 -4.25 46.5625 C-4.33855161 43.8962397 -4.36524673 41.25602886 -4.34765625 38.58984375 C-4.3462413 37.79220108 -4.34482635 36.99455841 -4.34336853 36.17274475 C-4.33775316 33.61512565 -4.32519812 31.05759282 -4.3125 28.5 C-4.30748698 26.77018355 -4.30292373 25.04036574 -4.29882812 23.31054688 C-4.28777875 19.06116447 -4.27050386 14.81184688 -4.25 10.5625 C-5.9 10.5625 -7.55 10.5625 -9.25 10.5625 C-9.24476318 11.64781006 -9.23952637 12.73312012 -9.23413086 13.85131836 C-9.21608164 17.86367982 -9.20456829 21.87603767 -9.19506836 25.88842773 C-9.19002796 27.62769168 -9.1831957 29.36695136 -9.17456055 31.10620117 C-9.16248208 33.60075937 -9.15676892 36.09526173 -9.15234375 38.58984375 C-9.14718246 39.37213852 -9.14202118 40.15443329 -9.13670349 40.96043396 C-9.13650774 42.82817114 -9.18800306 44.69579204 -9.25 46.5625 C-10.25 47.5625 -10.25 47.5625 -13.15625 47.6953125 C-14.3421875 47.69273437 -15.528125 47.69015625 -16.75 47.6875 C-17.9359375 47.69007813 -19.121875 47.69265625 -20.34375 47.6953125 C-23.25 47.5625 -23.25 47.5625 -24.25 46.5625 C-24.34794531 45.19170117 -24.37798081 43.8159432 -24.37939453 42.44165039 C-24.38254669 41.56726822 -24.38569885 40.69288605 -24.38894653 39.79200745 C-24.38591019 38.3654911 -24.38591019 38.3654911 -24.3828125 36.91015625 C-24.38376923 35.93968857 -24.38472595 34.96922089 -24.38571167 33.96934509 C-24.38639365 31.91226131 -24.38453814 29.85517538 -24.38037109 27.7980957 C-24.37502884 24.64204078 -24.38031253 21.48612855 -24.38671875 18.33007812 C-24.38605786 16.33593718 -24.38477647 14.34179633 -24.3828125 12.34765625 C-24.38483673 11.39866959 -24.38686096 10.44968292 -24.38894653 9.47193909 C-24.38421829 8.15563759 -24.38421829 8.15563759 -24.37939453 6.81274414 C-24.37859894 6.0385463 -24.37780334 5.26434845 -24.37698364 4.46669006 C-24.25 2.5625 -24.25 2.5625 -23.25 0.5625 C-22.28578125 0.57410156 -21.3215625 0.58570313 -20.328125 0.59765625 C-18.43320312 0.61119141 -18.43320312 0.61119141 -16.5 0.625 C-14.62054688 0.64240234 -14.62054688 0.64240234 -12.703125 0.66015625 C-9.44363971 0.69181996 -9.44363971 0.69181996 -7.125 0.03125 C-4.63258942 -0.59185264 -2.54182081 -0.3010051 0 0 Z " fill="#5BE1E6" transform="translate(361.25,356.4375)"/>
<path d="M0 0 C3.09734974 0.07869854 3.95361687 0.2519557 6.5625 2.125 C9.6975416 6.6394599 9.27327823 11.50216228 9.27026367 16.82788086 C9.27362228 17.67874771 9.2769809 18.52961456 9.28044128 19.40626526 C9.28993615 22.21747296 9.29189358 25.02862102 9.29296875 27.83984375 C9.29618205 29.79513066 9.29954618 31.75041733 9.30305481 33.70570374 C9.3090422 37.80372678 9.31089508 41.90172875 9.31030273 45.99975586 C9.31020107 51.24998164 9.32385983 56.50007233 9.34107494 61.75026608 C9.35219418 65.78830079 9.35422197 69.82630282 9.35369301 73.86435127 C9.35487299 75.80002877 9.35929575 77.73570712 9.36702538 79.67136955 C9.37682481 82.37858422 9.37394751 85.0855052 9.36791992 87.79272461 C9.37353943 88.59132904 9.37915894 89.38993347 9.38494873 90.21273804 C9.35581538 95.36318477 9.04326969 99.38822068 5.375 103.1875 C2.34605071 104.78611212 0.51097949 104.85871136 -2.875 104.375 C-7.50553978 101.49377525 -7.50553978 101.49377525 -8.50294113 98.47350979 C-9.12758634 94.95034665 -9.03120969 91.39752387 -9.03613281 87.83032227 C-9.04109772 86.96970184 -9.04606262 86.10908142 -9.05117798 85.22238159 C-9.06576941 82.37871499 -9.07259571 79.53510412 -9.078125 76.69140625 C-9.08387787 74.71369933 -9.08963558 72.73599242 -9.09539795 70.75828552 C-9.10589859 66.61318706 -9.11174775 62.46810794 -9.11523438 58.32299805 C-9.12072454 53.01218183 -9.14476769 47.70162129 -9.17320633 42.39088535 C-9.19182834 38.30652619 -9.19703802 34.22222876 -9.19857025 30.13783073 C-9.20159706 28.17981502 -9.20962654 26.2218004 -9.22275543 24.26382637 C-9.23981064 21.52537657 -9.23793726 18.78755363 -9.23144531 16.04907227 C-9.2406601 15.2411171 -9.24987488 14.43316193 -9.2593689 13.60072327 C-9.20833064 6.72781806 -7.49417474 0.72524272 0 0 Z " fill="#0AF885" transform="translate(242.875,115.625)"/>
<path d="M0 0 C0.92876953 -0.02384766 1.85753906 -0.04769531 2.81445312 -0.07226562 C7.29387543 -0.06270102 10.57023608 0.05728922 14.16015625 2.91015625 C17.45661816 6.5496646 17.68646927 9.01686612 17.625 13.75 C17.61597656 14.65105469 17.60695313 15.55210937 17.59765625 16.48046875 C17.58605469 17.16753906 17.57445312 17.85460937 17.5625 18.5625 C15.41673363 18.58935938 13.27087355 18.60883088 11.125 18.625 C9.93003906 18.63660156 8.73507812 18.64820313 7.50390625 18.66015625 C4.5625 18.5625 4.5625 18.5625 3.5625 17.5625 C3.52186168 15.89632885 3.519779 14.22861905 3.5625 12.5625 C1.5825 12.5625 -0.3975 12.5625 -2.4375 12.5625 C-2.4375 16.1925 -2.4375 19.8225 -2.4375 23.5625 C-1.65246094 23.58828125 -0.86742187 23.6140625 -0.05859375 23.640625 C6.53319583 23.99650076 11.33950302 24.36139374 16.5625 28.5625 C18.80033252 33.53379237 18.86570058 38.15777538 18.8125 43.5 C18.82410156 44.65918945 18.82410156 44.65918945 18.8359375 45.84179688 C18.81923404 50.78184646 18.24965611 54.90642608 16.5625 59.5625 C11.89727 64.0772387 6.78015005 63.77375501 0.6875 63.8125 C-0.11558594 63.833125 -0.91867187 63.85375 -1.74609375 63.875 C-6.50376499 63.90635203 -9.56585397 63.61981458 -13.4375 60.5625 C-14.02015625 60.13066406 -14.6028125 59.69882812 -15.203125 59.25390625 C-17.02548845 56.75680697 -16.99461871 54.55271737 -17.1875 51.5 C-17.30351562 49.90478516 -17.30351562 49.90478516 -17.421875 48.27734375 C-17.4375 45.5625 -17.4375 45.5625 -16.4375 43.5625 C-12.1475 43.5625 -7.8575 43.5625 -3.4375 43.5625 C-2.4375 50.3125 -2.4375 50.3125 -2.4375 52.5625 C-0.4575 52.5625 1.5225 52.5625 3.5625 52.5625 C3.5625 48.2725 3.5625 43.9825 3.5625 39.5625 C2.53769531 39.48773438 1.51289063 39.41296875 0.45703125 39.3359375 C-11.84006748 38.22230106 -11.84006748 38.22230106 -14.8125 34.75 C-17.44866066 29.57906947 -17.59576627 24.95239125 -17.625 19.1875 C-17.63917969 17.92164063 -17.65335937 16.65578125 -17.66796875 15.3515625 C-17.35380699 10.18653013 -16.80675444 6.23000789 -13.46484375 2.16015625 C-9.00170002 -0.19523186 -4.97324675 -0.05842792 0 0 Z " fill="#5BE1E5" transform="translate(290.4375,341.4375)"/>
<path d="M0 0 C0.99128906 0.00257813 1.98257813 0.00515625 3.00390625 0.0078125 C3.99261719 0.00523437 4.98132813 0.00265625 6 0 C8.56640625 0.1328125 8.56640625 0.1328125 10.56640625 1.1328125 C10.56640625 21.2628125 10.56640625 41.3928125 10.56640625 62.1328125 C5.94640625 62.1328125 1.32640625 62.1328125 -3.43359375 62.1328125 C-4.91859375 62.6278125 -4.91859375 62.6278125 -6.43359375 63.1328125 C-12.14640558 63.69865291 -16.51205809 63.37382379 -21.43359375 60.1328125 C-25.58602333 53.90416813 -24.61708166 46.55411961 -24.62109375 39.3203125 C-24.63333984 38.16982422 -24.64558594 37.01933594 -24.65820312 35.83398438 C-24.68447396 20.5531138 -24.68447396 20.5531138 -20.6171875 16.1796875 C-18.15077842 14.99722304 -16.2197923 14.60104413 -13.49609375 14.3828125 C-12.66207031 14.30546875 -11.82804688 14.228125 -10.96875 14.1484375 C-8.31988366 14.13211167 -6.00581646 14.52541823 -3.43359375 15.1328125 C-3.44519531 14.13378906 -3.45679688 13.13476562 -3.46875 12.10546875 C-3.47777344 10.81511719 -3.48679688 9.52476562 -3.49609375 8.1953125 C-3.50769531 6.90753906 -3.51929688 5.61976563 -3.53125 4.29296875 C-3.40432853 0.18579 -3.40432853 0.18579 0 0 Z M-10.43359375 25.1328125 C-10.43359375 34.0428125 -10.43359375 42.9528125 -10.43359375 52.1328125 C-6.574204 53.47794674 -6.574204 53.47794674 -3.43359375 52.1328125 C-3.43359375 43.2228125 -3.43359375 34.3128125 -3.43359375 25.1328125 C-5.74359375 25.1328125 -8.05359375 25.1328125 -10.43359375 25.1328125 Z " fill="#5CE1E6" transform="translate(215.43359375,341.8671875)"/>
<path d="M0 0 C3.97487293 5.29983058 4.15677428 10.20659474 4.125 16.625 C4.13080078 17.80835938 4.13080078 17.80835938 4.13671875 19.015625 C4.12665394 24.87334606 4.12665394 24.87334606 3 26 C1.43827255 26.08685603 -0.12729344 26.10702219 -1.69140625 26.09765625 C-2.63564453 26.09443359 -3.57988281 26.09121094 -4.55273438 26.08789062 C-5.54595703 26.07951172 -6.53917969 26.07113281 -7.5625 26.0625 C-8.55958984 26.05798828 -9.55667969 26.05347656 -10.58398438 26.04882812 C-13.05604849 26.03700007 -15.52799518 26.02051849 -18 26 C-18 28.97 -18 31.94 -18 35 C-14.535 34.505 -14.535 34.505 -11 34 C-10.67 32.35 -10.34 30.7 -10 29 C-5.38 29 -0.76 29 4 29 C4 36.98418972 4 36.98418972 2.3125 40.3125 C1.99925781 40.96863281 1.68601562 41.62476563 1.36328125 42.30078125 C-0.56854067 44.70863952 -2.00770495 45.19083856 -5 46 C-8.00540198 46.29743808 -10.98168492 46.32474966 -14 46.3125 C-14.7940625 46.32861328 -15.588125 46.34472656 -16.40625 46.36132812 C-21.1203363 46.36525653 -24.14721227 45.999045 -28 43 C-32.71821034 38.28178966 -32.28258502 31.87619998 -32.32226562 25.62109375 C-32.31904297 24.46738281 -32.31582031 23.31367188 -32.3125 22.125 C-32.32861328 20.97902344 -32.34472656 19.83304687 -32.36132812 18.65234375 C-32.36512705 12.04980754 -31.89602877 6.96864467 -29 1 C-22.25609857 -5.74390143 -7.55884275 -4.87125422 0 0 Z M-18 8 C-18 10.64 -18 13.28 -18 16 C-15.36 16 -12.72 16 -10 16 C-9.979375 14.700625 -9.95875 13.40125 -9.9375 12.0625 C-9.92589844 11.33160156 -9.91429687 10.60070312 -9.90234375 9.84765625 C-9.79438816 7.98267859 -9.79438816 7.98267859 -11 7 C-14.63194641 6.80850919 -14.63194641 6.80850919 -18 8 Z " fill="#5BE1E6" transform="translate(264,359)"/>
<path d="M0 0 C0.33 -0.33 0.66 -0.66 1 -1 C2.66429051 -1.09823937 4.33281931 -1.12973631 6 -1.125 C7.36125 -1.12886719 7.36125 -1.12886719 8.75 -1.1328125 C11 -1 11 -1 12 0 C12.09295815 1.44289787 12.11746513 2.89029785 12.11352539 4.33618164 C12.11344986 5.2570607 12.11337433 6.17793976 12.11329651 7.12672424 C12.10813522 8.12775681 12.10297394 9.12878937 12.09765625 10.16015625 C12.0962413 11.17975937 12.09482635 12.19936249 12.09336853 13.24986267 C12.08775097 16.52077107 12.0751955 19.79161213 12.0625 23.0625 C12.05748726 25.27408756 12.05292396 27.48567618 12.04882812 29.69726562 C12.03777584 35.13153357 12.02102063 40.56576197 12 46 C10.51886719 45.98259766 10.51886719 45.98259766 9.0078125 45.96484375 C7.72648437 45.95582031 6.44515625 45.94679688 5.125 45.9375 C3.21074219 45.92009766 3.21074219 45.92009766 1.2578125 45.90234375 C-1.88664652 45.76823431 -1.88664652 45.76823431 -4 47 C-14.82555164 47.82389154 -14.82555164 47.82389154 -19 45 C-23.9948988 38.80039463 -23.58069238 32.13957641 -23.46655273 24.50195312 C-23.43747146 22.3729106 -23.44598974 20.24634561 -23.45898438 18.1171875 C-23.42582795 10.86098582 -23.31989611 6.04161266 -18.5625 0.25 C-13.32490313 -3.9400775 -5.73644428 -2.2386124 0 0 Z M-9 9 C-9 17.91 -9 26.82 -9 36 C-5.14061025 37.34513424 -5.14061025 37.34513424 -2 36 C-2 27.09 -2 18.18 -2 9 C-4.31 9 -6.62 9 -9 9 Z " fill="#5CE1E6" transform="translate(172,358)"/>
<path d="M0 0 C2.81005071 2.27841949 3.84898818 3.54696453 5 7 C5.10325517 8.85443107 5.14852211 10.71231941 5.16113281 12.56958008 C5.17074036 13.71119095 5.1803479 14.85280182 5.19024658 16.02900696 C5.19449646 17.26337997 5.19874634 18.49775299 5.203125 19.76953125 C5.20882507 21.03842697 5.21452515 22.30732269 5.22039795 23.6146698 C5.22985201 26.30215033 5.23674671 28.98951909 5.24023438 31.67700195 C5.24571164 35.11013066 5.26972702 38.54286127 5.29820633 41.97586536 C5.32138392 45.26122361 5.32328593 48.5466027 5.328125 51.83203125 C5.3404718 53.06033157 5.3528186 54.2886319 5.36553955 55.55415344 C5.33760167 66.26968962 5.33760167 66.26968962 2 71 C-0.19519898 72.60981258 -1.76813263 72.95838278 -4.4375 73.4375 C-8.1313546 72.8068419 -9.58425629 70.75126367 -12 68 C-12.33 67.67 -12.66 67.34 -13 67 C-13.12018953 65.0941749 -13.17021989 63.18389089 -13.19287109 61.27441406 C-13.20893402 60.04934143 -13.22499695 58.8242688 -13.24154663 57.56207275 C-13.25303459 56.21326387 -13.26364305 54.86444725 -13.2734375 53.515625 C-13.27876118 52.83876396 -13.28408485 52.16190292 -13.28956985 51.46453094 C-13.31632341 47.87968578 -13.33568827 44.29487566 -13.35009766 40.70996094 C-13.36672193 37.00964088 -13.41147256 33.31021565 -13.4624691 29.61023331 C-13.49616459 26.76372278 -13.50767763 23.91742359 -13.51332474 21.07073212 C-13.52003458 19.70716286 -13.5352502 18.34360739 -13.55921555 16.98023224 C-13.73577836 6.32479252 -13.73577836 6.32479252 -11.92169189 3.05847168 C-8.05860483 -0.92823559 -5.21534861 -1.35599064 0 0 Z " fill="#09F886" transform="translate(211,147)"/>
<path d="M0 0 C0.72614502 0.00008057 1.45229004 0.00016113 2.20043945 0.00024414 C4.4150722 -0.00194063 6.62920561 -0.02008844 8.84375 -0.0390625 C10.245441 -0.04199669 11.64713437 -0.04398131 13.04882812 -0.04492188 C14.33072021 -0.04903076 15.6126123 -0.05313965 16.93334961 -0.05737305 C19.99023438 0.18554688 19.99023438 0.18554688 21.99023438 2.18554688 C22.22070312 4.53320312 22.22070312 4.53320312 22.17773438 7.24804688 C22.17128906 8.14652344 22.16484375 9.045 22.15820312 9.97070312 C21.99023438 12.18554688 21.99023438 12.18554688 20.99023438 13.18554688 C19.470954 13.25734651 17.94855956 13.26946695 16.42773438 13.24804688 C15.60144531 13.23902344 14.77515625 13.23 13.92382812 13.22070312 C13.28574219 13.20910156 12.64765625 13.1975 11.99023438 13.18554688 C11.99245499 13.78467392 11.9946756 14.38380096 11.9969635 15.00108337 C12.01901602 21.21352545 12.03414083 27.42595649 12.04516602 33.63842773 C12.05020771 35.95972139 12.05704089 38.28101185 12.06567383 40.60229492 C12.07774662 43.93083482 12.08346416 47.2593329 12.08789062 50.58789062 C12.09305191 51.63267075 12.0982132 52.67745087 12.10353088 53.75389099 C12.10364418 55.19527184 12.10364418 55.19527184 12.10375977 56.66577148 C12.10598038 57.51626572 12.10820099 58.36675995 12.11048889 59.24302673 C11.99023438 61.18554688 11.99023438 61.18554688 10.99023438 62.18554688 C8.82542641 62.28447627 6.65729653 62.31525788 4.49023438 62.31054688 C3.30429688 62.313125 2.11835937 62.31570313 0.89648438 62.31835938 C-2.00976562 62.18554688 -2.00976562 62.18554688 -3.00976562 61.18554688 C-3.10288452 59.68135948 -3.1272259 58.17283331 -3.12329102 56.66577148 C-3.12321548 55.70485092 -3.12313995 54.74393036 -3.12306213 53.75389099 C-3.11790085 52.70911087 -3.11273956 51.66433075 -3.10742188 50.58789062 C-3.10600693 49.52389542 -3.10459198 48.45990021 -3.10313416 47.36366272 C-3.09751626 43.95009604 -3.08496073 40.53659388 -3.07226562 37.12304688 C-3.06725293 34.81510511 -3.06268962 32.50716232 -3.05859375 30.19921875 C-3.04754102 24.52796976 -3.0302644 18.85676927 -3.00976562 13.18554688 C-5.97976562 13.18554688 -8.94976562 13.18554688 -12.00976562 13.18554688 C-12.03663115 11.2064529 -12.05609938 9.22725717 -12.07226562 7.24804688 C-12.08386719 6.14589844 -12.09546875 5.04375 -12.10742188 3.90820312 C-11.8862828 -2.25715432 -4.82334402 0.01692789 0 0 Z " fill="#5CE0E5" transform="translate(97.009765625,341.814453125)"/>
<path d="M0 0 C4.29 0 8.58 0 13 0 C14 1 14 1 14.12025452 3.43605042 C14.1169236 5.05820717 14.1169236 5.05820717 14.11352539 6.71313477 C14.11344986 7.9343251 14.11337433 9.15551544 14.11329651 10.41371155 C14.10818911 11.75627686 14.10297311 13.09884175 14.09765625 14.44140625 C14.09579199 15.80761158 14.09436813 17.17381757 14.09336853 18.5400238 C14.08954394 22.14201695 14.07971417 25.74397 14.06866455 29.34594727 C14.05844916 33.01903745 14.05387064 36.69213409 14.04882812 40.36523438 C14.03809184 47.57684334 14.02049553 54.78841095 14 62 C9.38 62 4.76 62 0 62 C0 41.54 0 21.08 0 0 Z " fill="#5ADCE1" transform="translate(399,342)"/>
<path d="M0 0 C0 4.62 0 9.24 0 14 C-2.64 14.33 -5.28 14.66 -8 15 C-8.33 25.89 -8.66 36.78 -9 48 C-13.29 48 -17.58 48 -22 48 C-23.55906782 46.44093218 -23.12722371 44.93845719 -23.12939453 42.77148438 C-23.13254669 41.87385376 -23.13569885 40.97622314 -23.13894653 40.0513916 C-23.1369223 39.07536987 -23.13489807 38.09934814 -23.1328125 37.09375 C-23.13376923 36.0987146 -23.13472595 35.1036792 -23.13571167 34.07849121 C-23.1363936 31.97013282 -23.13453844 29.86177235 -23.13037109 27.75341797 C-23.12502303 24.51394973 -23.13031567 21.27462015 -23.13671875 18.03515625 C-23.13605797 15.99218719 -23.13477681 13.94921822 -23.1328125 11.90625 C-23.13483673 10.93022827 -23.13686096 9.95420654 -23.13894653 8.9486084 C-23.13579437 8.05097778 -23.13264221 7.15334717 -23.12939453 6.22851562 C-23.12859894 5.43433228 -23.12780334 4.64014893 -23.12698364 3.82189941 C-23 2 -23 2 -22 1 C-20.189715 0.90120435 -18.37547273 0.87028486 -16.5625 0.875 C-15.57378906 0.87242187 -14.58507812 0.86984375 -13.56640625 0.8671875 C-11 1 -11 1 -9 2 C-8.401875 1.690625 -7.80375 1.38125 -7.1875 1.0625 C-5 0 -5 0 0 0 Z " fill="#5DE2E6" transform="translate(145,356)"/>
<path d="M0 0 C0.76183594 0.03996094 1.52367187 0.07992187 2.30859375 0.12109375 C3.07300781 0.14300781 3.83742187 0.16492188 4.625 0.1875 C6.74609375 0.55859375 6.74609375 0.55859375 9.74609375 2.55859375 C11.58773457 8.0835162 11.05207452 14.24300064 11.09619141 20.03662109 C11.11275731 21.63117054 11.14005632 23.22564553 11.17822266 24.81982422 C11.23310622 27.12636565 11.25487787 29.43117411 11.26953125 31.73828125 C11.29220062 32.44677216 11.31487 33.15526306 11.33822632 33.88522339 C11.32177057 37.7574415 10.84923279 39.42672141 8.43603516 42.51220703 C5.74609375 44.55859375 5.74609375 44.55859375 2.18359375 45.12109375 C-1.73492336 44.47988186 -2.87948851 43.66360156 -5.25390625 40.55859375 C-6.73424444 37.59791737 -6.45769954 34.56897454 -6.4921875 31.3203125 C-6.50025925 30.60253128 -6.50833099 29.88475006 -6.51664734 29.1452179 C-6.53048411 27.62458712 -6.5412081 26.10392534 -6.54907227 24.58325195 C-6.56626467 22.26518333 -6.61014806 19.94854906 -6.65429688 17.63085938 C-6.66442602 16.15235422 -6.67294144 14.67383696 -6.6796875 13.1953125 C-6.69719559 12.50555832 -6.71470367 11.81580414 -6.73274231 11.10514832 C-6.71677654 7.5368684 -6.31204049 5.64930244 -4.36816406 2.61621094 C-2.25390625 0.55859375 -2.25390625 0.55859375 0 0 Z " fill="#09FC88" transform="translate(168.25390625,175.44140625)"/>
<path d="M0 0 C4.29 0 8.58 0 13 0 C14.55906782 1.55906782 14.12722371 3.06154281 14.12939453 5.22851562 C14.13254669 6.12614624 14.13569885 7.02377686 14.13894653 7.9486084 C14.1369223 8.92463013 14.13489807 9.90065186 14.1328125 10.90625 C14.13376923 11.9012854 14.13472595 12.8963208 14.13571167 13.92150879 C14.1363936 16.02986718 14.13453844 18.13822765 14.13037109 20.24658203 C14.12502303 23.48605027 14.13031567 26.72537985 14.13671875 29.96484375 C14.13605797 32.00781281 14.13477681 34.05078178 14.1328125 36.09375 C14.13483673 37.06977173 14.13686096 38.04579346 14.13894653 39.0513916 C14.13579437 39.94902222 14.13264221 40.84665283 14.12939453 41.77148438 C14.12820114 42.9627594 14.12820114 42.9627594 14.12698364 44.17810059 C14 46 14 46 13 47 C8.71 47 4.42 47 0 47 C0 31.49 0 15.98 0 0 Z " fill="#5ADBE0" transform="translate(317,357)"/>
<path d="M0 0 C2 2 2 2 2.24050903 4.30365276 C2.23606781 5.27350518 2.23162659 6.2433576 2.22705078 7.24259949 C2.22690979 8.35431519 2.2267688 9.46603088 2.22662354 10.61143494 C2.21629089 11.83689529 2.20595825 13.06235565 2.1953125 14.32495117 C2.19082928 16.2994714 2.18634661 18.27399163 2.18188477 20.24851191 C2.1751335 22.37523083 2.16342171 24.50187214 2.15032959 26.62856102 C2.12331778 31.06228619 2.11150248 35.4959712 2.10205078 39.92976379 C2.07793585 50.14877547 2.03391941 60.36768365 1.98959351 70.58662415 C1.94920777 79.93818443 1.91305672 89.2897089 1.89316368 98.64133817 C1.88321845 103.04504946 1.86352632 107.44857544 1.83630371 111.85221231 C1.82494796 113.93605835 1.8182163 116.0198583 1.8135376 118.10372925 C1.80781901 120.63948913 1.79493441 123.17524755 1.77337646 125.71092224 C1.77233527 134.02488158 1.90594334 140.72670638 8 147 C11.28041996 149.07239167 13.87144086 149.24619317 17.71484375 149.23950195 C18.86283447 149.24323318 20.0108252 149.24696442 21.19360352 149.25080872 C23.04683228 149.24460762 23.04683228 149.24460762 24.9375 149.23828125 C27.5494844 149.25369537 30.16146367 149.26999858 32.7734375 149.28710938 C36.89490943 149.30583459 41.01618821 149.31394399 45.13769531 149.30541992 C49.11290964 149.29844587 53.08740804 149.33085509 57.0625 149.36328125 C58.29798584 149.35307449 59.53347168 149.34286774 60.80639648 149.33235168 C61.95438721 149.3455394 63.10237793 149.35872711 64.28515625 149.37231445 C65.29457275 149.37294388 66.30398926 149.3735733 67.34399414 149.3742218 C70.98385353 150.23180449 71.95629791 151.95459926 74 155 C74.69738281 155.97195312 75.39476562 156.94390625 76.11328125 157.9453125 C80.23190306 163.90012272 84.24476939 169.89030839 88.1015625 176.01953125 C90.46396038 179.7283987 92.88049778 183.39901038 95.3125 187.0625 C95.74554443 187.71847168 96.17858887 188.37444336 96.62475586 189.05029297 C98.2917683 191.55360477 99.86758413 193.86758413 102 196 C108.6 189.4 115.2 182.8 122 176 C122.66 176.33 123.32 176.66 124 177 C116.74 184.26 109.48 191.52 102 199 C96.40213999 193.40213999 96.40213999 193.40213999 94.8425293 189.68457031 C85.69345234 168.85645793 85.69345234 168.85645793 70 153 C55.45467738 147.60937448 37.75521397 149.7484079 22.64112854 151.44577026 C16.40693683 152.11401963 12.48664653 152.18011067 7 149 C5.0390625 147.28125 5.0390625 147.28125 3.625 145.5 C3.14289063 144.9121875 2.66078125 144.324375 2.1640625 143.71875 C-0.13196166 140.32864721 -0.12383072 137.32826634 -0.12025452 133.36225891 C-0.12162918 132.1885675 -0.12300385 131.0148761 -0.12442017 129.80561829 C-0.12082489 128.51665146 -0.11722961 127.22768463 -0.11352539 125.8996582 C-0.11324334 124.529775 -0.1134016 123.15989166 -0.1139679 121.79000854 C-0.11425518 118.06921727 -0.10836949 114.34845814 -0.10139394 110.62767434 C-0.09514904 106.73991829 -0.0945557 102.85216153 -0.09336853 98.96440125 C-0.09025858 91.60151443 -0.08204969 84.23864244 -0.07201904 76.87576216 C-0.0608475 68.49375013 -0.05534483 60.11173739 -0.05032361 51.72971976 C-0.03986682 34.48647126 -0.02227385 17.2432372 0 0 Z " fill="#64F9FD" transform="translate(134,99)"/>
<path d="M0 0 C1.875 1.125 1.875 1.125 3 3 C3.49573337 6.89504791 3.58016848 9.09493717 1.4375 12.4375 C-1.96719488 14.61999672 -4.03430012 14.63734462 -8 14 C-10.5 11.9375 -10.5 11.9375 -12 9 C-12.0625 5.375 -12.0625 5.375 -11 2 C-7.3487558 -1.33828041 -4.64215415 -1.41282953 0 0 Z " fill="#5DE6EA" transform="translate(328,341)"/>
<path d="M0 0 C0.66 0.33 1.32 0.66 2 1 C-1.12572471 4.15072128 -4.2549331 7.29793136 -7.38720703 10.44213867 C-8.44900861 11.50892297 -9.50990558 12.57660853 -10.56982422 13.64526367 C-20.5077602 23.6629659 -20.5077602 23.6629659 -25.0390625 27.53125 C-28.35967082 30.3661356 -31.45556284 33.39282351 -34.5234375 36.49609375 C-35.00089417 36.97905411 -35.47835083 37.46201447 -35.97027588 37.95960999 C-37.9471788 39.96426349 -39.92019905 41.97265266 -41.88916016 43.98510742 C-43.34628443 45.47224382 -44.80941757 46.95325005 -46.2734375 48.43359375 C-47.13372559 49.31072021 -47.99401367 50.18784668 -48.88037109 51.09155273 C-51 53 -51 53 -53 53 C-53.66 54.32 -54.32 55.64 -55 57 C-55.66 56.67 -56.32 56.34 -57 56 C-55.97193237 54.97302002 -55.97193237 54.97302002 -54.9230957 53.92529297 C-52.29895655 51.30121136 -49.68148996 48.67054346 -47.06474304 46.03909302 C-44.45999169 43.4208424 -41.85248306 40.80534463 -39.24487305 38.18994141 C-37.87775676 36.81779597 -36.51153929 35.4447544 -35.14624023 34.07080078 C-33.15590149 32.06821306 -31.16224447 30.06897873 -29.16796875 28.0703125 C-28.56873093 27.46591339 -27.9694931 26.86151428 -27.35209656 26.23880005 C-23.62274856 22.50896962 -19.76024942 18.99341705 -15.7702179 15.54437256 C-13.82581438 13.84803707 -11.97198284 12.08709806 -10.15625 10.25390625 C-9.55039062 9.64482422 -8.94453125 9.03574219 -8.3203125 8.40820312 C-7.71960938 7.79912109 -7.11890625 7.19003906 -6.5 6.5625 C-5.86835938 5.92634766 -5.23671875 5.29019531 -4.5859375 4.63476562 C-3.05494226 3.09217194 -1.52712333 1.54642686 0 0 Z " fill="#64F8FC" transform="translate(315,218)"/>
<path d="M0 0 C0.98484375 0.10183594 1.9696875 0.20367187 2.984375 0.30859375 C3.73203125 0.39238281 4.4796875 0.47617187 5.25 0.5625 C5.25 1.2225 5.25 1.8825 5.25 2.5625 C4.36957031 2.50449219 3.48914063 2.44648438 2.58203125 2.38671875 C1.42058594 2.34160156 0.25914062 2.29648437 -0.9375 2.25 C-2.66033203 2.16298828 -2.66033203 2.16298828 -4.41796875 2.07421875 C-8.82695017 2.72031802 -10.00707446 4.09714842 -12.75 7.5625 C-13.25762732 10.33142757 -13.47264271 12.50650312 -13.45703125 15.26953125 C-13.47215256 15.99492599 -13.48727386 16.72032074 -13.50285339 17.46769714 C-13.54562827 19.77045013 -13.55455741 22.07188984 -13.5625 24.375 C-13.58565261 25.94209196 -13.61101956 27.50915286 -13.63867188 29.07617188 C-13.70142194 32.90506345 -13.73383701 36.73313984 -13.75 40.5625 C-16.0278366 37.14574509 -16.00676679 35.87889884 -16.015625 31.86328125 C-16.01949219 30.17235352 -16.01949219 30.17235352 -16.0234375 28.44726562 C-16.01570312 27.26841797 -16.00796875 26.08957031 -16 24.875 C-16.00773438 23.71548828 -16.01546875 22.55597656 -16.0234375 21.36132812 C-15.98822204 5.87532944 -15.98822204 5.87532944 -11.875 1.625 C-7.74936014 -0.43781993 -4.56955613 -0.4895953 0 0 Z " fill="#64F9FB" transform="translate(206.75,356.4375)"/>
<path d="M0 0 C0.99 1.98 0.99 1.98 2 4 C-0.625 7.875 -0.625 7.875 -4 9 C-5.78795144 9.10115965 -7.5793467 9.14568636 -9.37011719 9.15771484 C-10.46845886 9.16797699 -11.56680054 9.17823914 -12.69842529 9.18881226 C-14.4796579 9.19976425 -14.4796579 9.19976425 -16.296875 9.2109375 C-18.80729815 9.23900946 -21.31771473 9.26767394 -23.828125 9.296875 C-27.7890604 9.33811429 -31.74987361 9.37499916 -35.7109375 9.40136719 C-39.53150838 9.42901104 -43.35152017 9.47488829 -47.171875 9.5234375 C-48.35126648 9.52669037 -49.53065796 9.52994324 -50.74578857 9.53329468 C-57.59631564 9.63544959 -63.45835441 9.80084321 -68.77734375 14.60546875 C-69.16019531 15.12753906 -69.54304687 15.64960937 -69.9375 16.1875 C-70.618125 17.115625 -71.29875 18.04375 -72 19 C-72 14.97953158 -70.73859976 13.88273659 -68 11 C-62.21359717 6.99656438 -56.09945821 7.57641758 -49.33984375 7.59375 C-48.11721329 7.58291382 -46.89458282 7.57207764 -45.63490295 7.56091309 C-40.41443672 7.51508901 -35.19402006 7.50355977 -29.97338867 7.48876953 C-26.15785979 7.4730883 -22.34274772 7.44009243 -18.52734375 7.40625 C-16.75688942 7.41078186 -16.75688942 7.41078186 -14.95066833 7.41540527 C-13.84925003 7.40529419 -12.74783173 7.39518311 -11.61303711 7.38476562 C-10.16458656 7.38168396 -10.16458656 7.38168396 -8.68687439 7.37854004 C-5.48830518 6.92790992 -3.59239797 5.90034025 -1 4 C-0.12177688 1.91466367 -0.12177688 1.91466367 0 0 Z " fill="#66FAFD" transform="translate(208,78)"/>
<path d="M0 0 C0.99 0.33 1.98 0.66 3 1 C1.989375 1.825 0.97875 2.65 -0.0625 3.5 C-2.77432021 5.8143044 -5.13577279 8.2167948 -7.4375 10.9375 C-10.27187899 14.26617467 -13.27731726 17.05386099 -16.6171875 19.86328125 C-18.57750991 21.62114413 -20.41882342 23.4122085 -22.2578125 25.29296875 C-22.83321777 25.88118408 -23.40862305 26.46939941 -24.00146484 27.07543945 C-25.15154208 28.25907801 -26.29531207 29.44888357 -27.43212891 30.64526367 C-30.21051138 33.50052005 -32.0688976 35.28208216 -36 36 C-35.30994873 35.31139893 -34.61989746 34.62279785 -33.90893555 33.91333008 C-31.33513207 31.33963954 -28.7745579 28.75308717 -26.21577454 26.16447449 C-23.73742071 23.65932904 -21.2537142 21.1595185 -18.76977539 18.65991211 C-17.45778332 17.33777366 -16.14757883 16.01385909 -14.83911133 14.68823242 C-12.94556231 12.77055574 -11.04574188 10.85929592 -9.14453125 8.94921875 C-8.55807327 8.3524382 -7.9716153 7.75565765 -7.36738586 7.14079285 C-5.94905011 5.72206345 -4.47895971 4.35541417 -3 3 C-2.34 3 -1.68 3 -1 3 C-0.67 2.01 -0.34 1.02 0 0 Z " fill="#5EEFF3" transform="translate(279,274)"/>
<path d="M0 0 C0.99 0.33 1.98 0.66 3 1 C2.34 1 1.68 1 1 1 C0.731875 1.639375 0.46375 2.27875 0.1875 2.9375 C-1 5 -1 5 -4 6 C-4.68861117 7.32213345 -5.3531574 8.6569375 -6 10 C-7.5234375 11.5 -7.5234375 11.5 -9.375 13 C-15.26920629 17.96983814 -20.59382413 23.51273149 -26 29 C-26.66 28.67 -27.32 28.34 -28 28 C-18.76 18.76 -9.52 9.52 0 0 Z " fill="#5DF0F4" transform="translate(313,241)"/>
<path d="M0 0 C0.33 0.99 0.66 1.98 1 3 C-0.39798828 4.28970703 -0.39798828 4.28970703 -1.82421875 5.60546875 C-10.40844225 13.55462046 -18.78991799 21.66531304 -27 30 C-27.66 29.67 -28.32 29.34 -29 29 C-19.43 19.43 -9.86 9.86 0 0 Z " fill="#62F2F7" transform="translate(353,202)"/>
<path d="M0 0 C0.66 0.33 1.32 0.66 2 1 C-0.95025726 4.00803572 -3.91149669 7.0050179 -6.875 10 C-7.71675781 10.85851562 -8.55851562 11.71703125 -9.42578125 12.6015625 C-10.23144531 13.41367188 -11.03710938 14.22578125 -11.8671875 15.0625 C-12.61081543 15.81660156 -13.35444336 16.57070312 -14.12060547 17.34765625 C-16 19 -16 19 -18 19 C-18.33 19.99 -18.66 20.98 -19 22 C-21.5625 23.6875 -21.5625 23.6875 -24 25 C-22.71480435 22.13302508 -21.42870746 20.02392288 -19 18 C-18.34 18 -17.68 18 -17 18 C-16.65388672 17.14728516 -16.65388672 17.14728516 -16.30078125 16.27734375 C-14.66878795 13.42013025 -12.67320933 11.71280628 -10.1875 9.5625 C-6.6650456 6.47334317 -3.25714702 3.36571859 0 0 Z " fill="#63F9FC" transform="translate(342,192)"/>
<path d="M0 0 C0.66 0 1.32 0 2 0 C2.02684312 2.81256281 2.04676188 5.62487241 2.0625 8.4375 C2.07087891 9.23994141 2.07925781 10.04238281 2.08789062 10.86914062 C2.0965143 12.91295221 2.0522815 14.95683902 2 17 C1 18 1 18 -0.76586914 18.11352539 C-1.51473389 18.10828857 -2.26359863 18.10305176 -3.03515625 18.09765625 C-3.84404297 18.09443359 -4.65292969 18.09121094 -5.48632812 18.08789062 C-6.33646484 18.07951172 -7.18660156 18.07113281 -8.0625 18.0625 C-8.91650391 18.05798828 -9.77050781 18.05347656 -10.65039062 18.04882812 C-12.76695663 18.03700373 -14.88348685 18.01906769 -17 18 C-17 17.67 -17 17.34 -17 17 C-8.585 16.505 -8.585 16.505 0 16 C0 10.72 0 5.44 0 0 Z " fill="#52CBD0" transform="translate(266,367)"/>
<path d="M0 0 C3.12492251 -0.05791844 6.24970766 -0.09356746 9.375 -0.125 C10.26445313 -0.14175781 11.15390625 -0.15851563 12.0703125 -0.17578125 C12.92109375 -0.18222656 13.771875 -0.18867188 14.6484375 -0.1953125 C15.82672119 -0.21102295 15.82672119 -0.21102295 17.02880859 -0.22705078 C19 0 19 0 21 2 C20.40461426 2.02505615 19.80922852 2.0501123 19.19580078 2.07592773 C16.50530864 2.19177494 13.8151766 2.31455196 11.125 2.4375 C10.18785156 2.47681641 9.25070313 2.51613281 8.28515625 2.55664062 C7.38925781 2.59853516 6.49335937 2.64042969 5.5703125 2.68359375 C4.74289551 2.72025146 3.91547852 2.75690918 3.06298828 2.79467773 C0.93820571 2.88238327 0.93820571 2.88238327 -1 4 C-0.67 2.68 -0.34 1.36 0 0 Z " fill="#60F6F9" transform="translate(86,342)"/>
<path d="M0 0 C0.33 0.66 0.66 1.32 1 2 C-2.465 3.485 -2.465 3.485 -6 5 C-6.33 4.34 -6.66 3.68 -7 3 C-10.63 3 -14.26 3 -18 3 C-17.67 2.34 -17.34 1.68 -17 1 C-15.20841511 0.97303635 -13.41671527 0.95362083 -11.625 0.9375 C-10.62726563 0.92589844 -9.62953125 0.91429687 -8.6015625 0.90234375 C-6 1 -6 1 -4 2 C-1.88316159 1.10836423 -1.88316159 1.10836423 0 0 Z " fill="#5EF0F5" transform="translate(140,356)"/>
<path d="M0 0 C3.3 0 6.6 0 10 0 C10 0.99 10 1.98 10 3 C6.37 3 2.74 3 -1 3 C-0.67 2.01 -0.34 1.02 0 0 Z " fill="#60EBF2" transform="translate(173,357)"/>
<path d="M0 0 C2.64 0 5.28 0 8 0 C8 0.66 8 1.32 8 2 C5.69 2 3.38 2 1 2 C1 2.66 1 3.32 1 4 C0.34 4 -0.32 4 -1 4 C-0.67 2.68 -0.34 1.36 0 0 Z " fill="#66F9FB" transform="translate(213,342)"/>
<path d="M0 0 C0.66 0.33 1.32 0.66 2 1 C1.34 3.31 0.68 5.62 0 8 C-2.64 8 -5.28 8 -8 8 C-8 7.67 -8 7.34 -8 7 C-5.69 6.34 -3.38 5.68 -1 5 C-0.67 3.35 -0.34 1.7 0 0 Z " fill="#66F9FD" transform="translate(254,388)"/>
<path d="M0 0 C3.4375 1.1875 3.4375 1.1875 7 3 C7.9375 5.6875 7.9375 5.6875 8 8 C6.53515625 6.76302083 5.0703125 5.52604167 3.60546875 4.2890625 C2.1344954 3.10798901 0.56962206 2.04641471 -1 1 C-0.67 0.67 -0.34 0.34 0 0 Z " fill="#5CF3F8" transform="translate(299,366)"/>
<path d="M0 0 C0 0.66 0 1.32 0 2 C-0.639375 2.474375 -1.27875 2.94875 -1.9375 3.4375 C-4.28372963 4.9091365 -4.28372963 4.9091365 -5 8 C-5.66 8 -6.32 8 -7 8 C-6.44414399 4.1090079 -4.34122117 0 0 0 Z " fill="#61FCFC" transform="translate(311,171)"/>
<path d="M0 0 C0.66 1.32 1.32 2.64 2 4 C0.29374499 6.78388975 -0.47626739 7.85384206 -3.6875 8.75 C-4.450625 8.8325 -5.21375 8.915 -6 9 C-6 8.34 -6 7.68 -6 7 C-5.195625 6.54625 -4.39125 6.0925 -3.5625 5.625 C-0.84763807 4.26579005 -0.84763807 4.26579005 -0.1875 1.8125 C-0.125625 1.214375 -0.06375 0.61625 0 0 Z " fill="#60F3F6" transform="translate(208,78)"/>
</svg>
