<?xml version="1.0" encoding="UTF-8"?>
<svg version="1.1" xmlns="http://www.w3.org/2000/svg" width="500" height="500">
<path d="M0 0 C165 0 330 0 500 0 C500 165 500 330 500 500 C335 500 170 500 0 500 C0 335 0 170 0 0 Z " fill="#FEFEFE" transform="translate(0,0)"/>
<path d="M0 0 C3.2569304 4.88539561 5.05551761 10.42243002 7.1875 15.875 C7.55723938 16.81987778 7.55723938 16.81987778 7.93444824 17.78384399 C18.51802449 44.89255538 26.31935179 72.54124944 32.35644531 101.00244141 C32.91076112 103.58434181 33.4894249 106.15807811 34.0859375 108.73046875 C38.17939721 126.67701561 40.52071299 145.08830611 42.80859375 163.34375 C43.96091152 172.52085339 45.37777957 181.53952018 47.4375 190.5625 C47.72753906 191.8760144 47.72753906 191.8760144 48.0234375 193.21606445 C49.18422218 198.02374252 50.41219719 201.39793157 54 205 C56.96502546 206.48251273 58.66143845 206.35770302 62 206 C75.02130771 201.52392548 86.12515992 190.18388917 96 181 C97.16356671 179.9395599 98.32766796 178.87970615 99.4921875 177.8203125 C110.707917 167.55821756 121.10615594 156.77762182 130.625 144.9140625 C140.79073252 132.44097621 151.4812853 120.2362394 163 109 C163.33 109.66 163.66 110.32 164 111 C163.19344563 113.19046172 162.27304469 115.33917048 161.30859375 117.46484375 C160.86420708 118.44958679 160.86420708 118.44958679 160.4108429 119.45422363 C159.42913372 121.61974412 158.43438007 123.77892497 157.4375 125.9375 C157.09875854 126.67630402 156.76001709 127.41510803 156.41101074 128.17630005 C146.80747696 149.10143358 136.518145 169.64442878 124 189 C123.30519531 190.07894531 122.61039062 191.15789062 121.89453125 192.26953125 C110.1542129 210.14949712 97.1261518 226.94930436 83 243 C81.7625 244.40765625 81.7625 244.40765625 80.5 245.84375 C69.05629848 258.57486794 57.0891684 271.51085779 43.5390625 282.01953125 C41.13525808 283.8944987 38.83371643 285.85972433 36.53637695 287.86279297 C-16.49489469 333.8734336 -88.14108637 364.14035334 -158.5 364.3125 C-159.35417511 364.31626648 -160.20835022 364.32003296 -161.08840942 364.32391357 C-197.52944754 364.40538913 -234.44546541 354.68256606 -260.9375 328.5 C-280.75461102 308.24009766 -290.64985259 281.04820017 -290.39962769 252.89135742 C-290.39150055 252.20533447 -290.38337341 251.51931152 -290.375 250.8125 C-290.37001495 250.09666748 -290.36502991 249.38083496 -290.3598938 248.64331055 C-290.18692407 227.32870974 -286.17950738 208.37437087 -280 188 C-279.67 188 -279.34 188 -279 188 C-278.87446744 194.40216054 -278.87446744 194.40216054 -279.49121094 197.33935547 C-285.17727028 227.07384428 -276.94596294 261.75338997 -261 287 C-258.5255612 290.53424561 -255.86109551 293.77549921 -253 297 C-252.13375 298.09634766 -252.13375 298.09634766 -251.25 299.21484375 C-239.47202716 313.65809062 -222.08135615 322.44985982 -204.75 328.375 C-204.05414795 328.61387939 -203.3582959 328.85275879 -202.64135742 329.09887695 C-171.59160626 339.09893086 -137.08580607 332.64142297 -108.48632812 318.47729492 C-92.96251739 310.4088296 -79.47485743 300.20068474 -67 288 C-66.2265625 287.2884375 -65.453125 286.576875 -64.65625 285.84375 C-34.94874398 257.85841824 -19.02215015 217.30567878 -8 179 C-7.62681641 177.73349609 -7.62681641 177.73349609 -7.24609375 176.44140625 C-3.96352921 165.16814176 -2.03631662 153.72149684 -0.3125 142.125 C-0.20958649 141.43881592 -0.10667297 140.75263184 -0.00064087 140.0456543 C3.20490755 118.40553146 4.37219708 96.99717481 4.3125 75.125 C4.3117598 73.25344742 4.3117598 73.25344742 4.31100464 71.34408569 C4.28900639 53.14599656 3.61775901 35.29976336 1.36376953 17.23681641 C0.71974434 11.50628893 0.3633227 5.75414351 0 0 Z " fill="#219D5D" transform="translate(321,114)"/>
<path d="M0 0 C17.82 0 35.64 0 54 0 C54.10044783 13.9979633 54.20085358 27.99493553 54.25126934 41.99297428 C54.278779 49.51330278 54.3134763 57.03334847 54.37719727 64.5534668 C54.43315467 71.16061803 54.46156124 77.76757918 54.47438622 84.37495613 C54.48350599 86.8746934 54.50130749 89.37441717 54.52865028 91.87402153 C55.0663828 143.15000922 35.29744027 198.50715419 1 237 C0.67 237 0.34 237 0 237 C0 158.79 0 80.58 0 0 Z " fill="#07337D" transform="translate(247,146)"/>
<path d="M0 0 C17.82 0 35.64 0 54 0 C54.3163771 22.36647026 54.57411573 44.73112145 54.72537041 67.09926319 C54.79747624 77.48585584 54.89572468 87.87095684 55.05615234 98.2565918 C55.19596251 107.31184664 55.28607619 116.36602112 55.31723893 125.42232531 C55.33544948 130.21560288 55.37804153 135.00579069 55.48022079 139.79807472 C55.57576303 144.31597995 55.60446974 148.82954624 55.58350754 153.34836578 C55.58733749 155.0000824 55.61490734 156.6519544 55.66887665 158.3027935 C56.04464842 170.39747863 56.04464842 170.39747863 52.63633204 174.73573852 C48.84002312 178.45316686 44.51111121 181.23792796 40 184 C38.20635187 185.22627342 36.41421146 186.4547622 34.625 187.6875 C9.66856971 203 9.66856971 203 0 203 C0 136.01 0 69.02 0 0 Z " fill="#07327D" transform="translate(181,224)"/>
<path d="M0 0 C2.27914632 3.41871948 2.17398344 4.1234975 1.73388672 8.04125977 C1.56877594 9.51322311 1.56877594 9.51322311 1.40032959 11.0149231 C0.80145269 15.48047756 0.07361588 19.90910801 -0.7421875 24.33984375 C-0.91122589 25.26922256 -1.08026428 26.19860138 -1.25442505 27.15614319 C-1.60983256 29.09847967 -1.96791957 31.04032767 -2.32861328 32.98168945 C-2.87779192 35.95260357 -3.4098182 38.9262851 -3.94140625 41.90039062 C-4.29062478 43.79706713 -4.64084922 45.69355876 -4.9921875 47.58984375 C-5.22674149 48.9179734 -5.22674149 48.9179734 -5.46603394 50.27293396 C-6.96813163 58.1814624 -6.96813163 58.1814624 -10 61 C-12.87890625 61.53125 -12.87890625 61.53125 -16 61 C-18.52734375 59.09375 -18.52734375 59.09375 -20.9375 56.5 C-22.22333984 55.14068359 -22.22333984 55.14068359 -23.53515625 53.75390625 C-26.24291942 50.72859241 -28.89166775 47.66542997 -31.4296875 44.49609375 C-33.33303861 42.68270203 -34.39348741 42.27309456 -37 42 C-38.89940797 43.1318983 -38.89940797 43.1318983 -40.609375 44.9375 C-41.28226562 45.58589844 -41.95515625 46.23429687 -42.6484375 46.90234375 C-43.34195312 47.59457031 -44.03546875 48.28679687 -44.75 49 C-46.11849064 50.33466863 -47.48828114 51.66800577 -48.859375 53 C-49.88321289 54.00063477 -49.88321289 54.00063477 -50.92773438 55.02148438 C-53.58924578 57.5625881 -56.35022992 59.97312559 -59.13378906 62.37890625 C-61.80607483 64.70020106 -64.40005851 67.09788014 -67 69.5 C-70.9089222 73.10109458 -74.85868644 76.64419491 -78.875 80.125 C-81.61823418 82.54550075 -84.30884568 85.02200642 -87 87.5 C-90.90305747 91.09390441 -94.84325292 94.63384621 -98.85546875 98.10546875 C-102.24822714 101.10271432 -105.56420202 104.18424745 -108.87695312 107.26953125 C-113.32332201 111.38286068 -115.73807399 113.25267055 -121.84838867 113.22705078 C-123.64991646 113.22682419 -123.64991646 113.22682419 -125.48783875 113.22659302 C-126.78478165 113.21627045 -128.08172455 113.20594788 -129.41796875 113.1953125 C-130.75889373 113.19158155 -132.09982144 113.18873497 -133.44075012 113.18673706 C-136.96714833 113.17910699 -140.49338134 113.15946403 -144.01971436 113.1373291 C-147.61923996 113.1168571 -151.21879231 113.10773245 -154.81835938 113.09765625 C-161.87897376 113.07621745 -168.93947609 113.04208913 -176 113 C-175.99111755 113.9034465 -175.98223511 114.80689301 -175.9730835 115.73771667 C-175.89289613 124.2567543 -175.83201449 132.77566496 -175.79275131 141.2949934 C-175.77188694 145.67477216 -175.74359065 150.05423877 -175.69824219 154.43383789 C-175.65474288 158.66136551 -175.63085424 162.88859312 -175.62049103 167.11632729 C-175.61310694 168.72828201 -175.59868733 170.34022053 -175.57707977 171.95204735 C-175.54799022 174.21212465 -175.54404613 176.47096642 -175.54589844 178.73120117 C-175.53701599 180.01693527 -175.52813354 181.30266937 -175.51898193 182.62736511 C-176.09682462 186.67888115 -176.91624324 188.31486369 -180 191 C-183.06256104 191.60127258 -183.06256104 191.60127258 -186.69628906 191.56762695 C-187.69202942 191.56872215 -187.69202942 191.56872215 -188.70788574 191.56983948 C-190.8946401 191.56636533 -193.07924449 191.52751961 -195.265625 191.48828125 C-196.78447303 191.47895233 -198.30333613 191.47183659 -199.82220459 191.46684265 C-203.81418614 191.44777854 -207.80525381 191.39868435 -211.796875 191.34332275 C-215.87227007 191.29211668 -219.94781325 191.26932581 -224.0234375 191.24414062 C-232.01604376 191.19056367 -240.0079081 191.1052596 -248 191 C-247.98667633 191.96386627 -247.98667633 191.96386627 -247.9730835 192.94720459 C-247.88464352 199.63040275 -247.82427946 206.3134349 -247.78027344 212.99707031 C-247.76014836 215.49193065 -247.73284548 217.98674378 -247.69824219 220.48144531 C-247.64976543 224.06587368 -247.6270398 227.64967885 -247.609375 231.234375 C-247.58872986 232.35116638 -247.56808472 233.46795776 -247.54681396 234.61859131 C-247.54636078 236.17975677 -247.54636078 236.17975677 -247.54589844 237.77246094 C-247.53701599 238.68735291 -247.52813354 239.60224487 -247.51898193 240.54486084 C-248.16644774 243.84955722 -249.31296897 245.01329381 -252 247 C-254.41908264 247.43823242 -254.41908264 247.43823242 -257.14477539 247.35546875 C-258.68271507 247.32694824 -258.68271507 247.32694824 -260.25172424 247.29785156 C-261.35588181 247.26143555 -262.46003937 247.22501953 -263.59765625 247.1875 C-265.94984632 247.16299705 -268.30206291 247.14094036 -270.65429688 247.12109375 C-274.35303908 247.06966451 -278.04845493 247.00043009 -281.74584961 246.88720703 C-296.00368557 245.76272089 -296.00368557 245.76272089 -308.87915039 250.46362305 C-311.77381026 253.32300981 -313.84558155 256.56270985 -316 260 C-317.25047533 261.4153478 -318.5348276 262.80210478 -319.86328125 264.14453125 C-320.43312744 264.75111572 -321.00297363 265.3577002 -321.59008789 265.98266602 C-322.15848389 266.58651123 -322.72687988 267.19035645 -323.3125 267.8125 C-324.58863575 269.17178668 -325.86467492 270.53116403 -327.140625 271.890625 C-329.07339926 273.94872606 -331.00630094 276.00670704 -332.93945312 278.06445312 C-334.81528652 280.06241606 -336.68908905 282.0622658 -338.5625 284.0625 C-339.40131714 284.95449097 -339.40131714 284.95449097 -340.25708008 285.86450195 C-343.52696367 289.35884241 -346.66956642 292.92558241 -349.71850586 296.61499023 C-351.70112886 298.75776415 -352.95187235 298.99476873 -355.875 299.3125 C-359 299 -359 299 -361.375 297.3125 C-363.36018235 294.48743281 -363.4534342 293.39328231 -363 290 C-361.27734375 287.5703125 -361.27734375 287.5703125 -358.9375 285.125 C-358.11378906 284.25359375 -357.29007812 283.3821875 -356.44140625 282.484375 C-353.8729849 279.87074944 -351.29082147 277.27397878 -348.67578125 274.70703125 C-346.88946557 272.88740432 -345.22522165 270.99546083 -343.5625 269.0625 C-340.52320349 265.53365237 -337.28983153 262.26994973 -333.97265625 259.00390625 C-331.42662171 256.41753849 -329.07978443 253.6846472 -326.71484375 250.93359375 C-324.529722 248.46973209 -322.20875607 246.17708947 -319.82826233 243.9029541 C-317.96259739 242.0533522 -317.96259739 242.0533522 -316.52781677 239.93566895 C-314.1986099 236.73839941 -312.38610546 234.386709 -308.48587036 233.29858398 C-305.49231965 233.07579955 -302.59709243 233.09916979 -299.59765625 233.21875 C-298.51995468 233.23006958 -297.44225311 233.24138916 -296.33189392 233.25305176 C-292.90691517 233.29765483 -289.48620204 233.39799384 -286.0625 233.5 C-283.73378464 233.54014747 -281.40500331 233.57664601 -279.07617188 233.609375 C-273.38267176 233.69733627 -267.6916406 233.83101108 -262 234 C-262.01332367 233.05825676 -262.01332367 233.05825676 -262.0269165 232.0974884 C-262.11544455 225.56012073 -262.17575712 219.02292348 -262.21972656 212.48510742 C-262.23983564 210.04558393 -262.26712683 207.6061086 -262.30175781 205.16674805 C-262.35030489 201.65922152 -262.37297632 198.15233257 -262.390625 194.64453125 C-262.41127014 193.55477493 -262.43191528 192.46501862 -262.45318604 191.34223938 C-262.45363922 189.81121834 -262.45363922 189.81121834 -262.45410156 188.24926758 C-262.46298401 187.35436111 -262.47186646 186.45945465 -262.48101807 185.53742981 C-261.81441465 182.02101431 -260.6221223 180.42164645 -258 178 C-254.93743896 177.39872742 -254.93743896 177.39872742 -251.30371094 177.43237305 C-250.30797058 177.43127785 -250.30797058 177.43127785 -249.29211426 177.43016052 C-247.1053599 177.43363467 -244.92075551 177.47248039 -242.734375 177.51171875 C-241.21552697 177.52104767 -239.69666387 177.52816341 -238.17779541 177.53315735 C-234.18581386 177.55222146 -230.19474619 177.60131565 -226.203125 177.65667725 C-222.12772993 177.70788332 -218.05218675 177.73067419 -213.9765625 177.75585938 C-205.98395624 177.80943633 -197.9920919 177.8947404 -190 178 C-190.00888245 177.08180481 -190.01776489 176.16360962 -190.0269165 175.21759033 C-190.10705421 166.56579495 -190.16796026 157.91412416 -190.20724869 149.262043 C-190.22812638 144.81385723 -190.25644702 140.36597806 -190.30175781 135.91796875 C-190.34520957 131.62560766 -190.36913574 127.33354152 -190.37950897 123.04097748 C-190.3869016 121.40307725 -190.40133775 119.76519323 -190.42292023 118.12741852 C-190.45194647 115.83361391 -190.45595651 113.54102894 -190.45410156 111.24707031 C-190.46298401 109.94135071 -190.47186646 108.6356311 -190.48101807 107.29034424 C-190 104 -190 104 -188.36598206 101.57423401 C-185.28484804 99.52416522 -183.3791995 99.52506872 -179.69018555 99.56518555 C-177.77250618 99.56949837 -177.77250618 99.56949837 -175.81608582 99.57389832 C-175.13536703 99.5844393 -174.45464825 99.59498028 -173.75330162 99.60584068 C-171.6125008 99.63707206 -169.47323764 99.64082755 -167.33222961 99.63691711 C-161.24757885 99.63040955 -155.16362977 99.67068031 -149.0793457 99.7355957 C-145.35262184 99.77344704 -141.62707605 99.77710501 -137.90021706 99.76056862 C-136.48526884 99.76132961 -135.07026044 99.77528653 -133.65558434 99.80304527 C-125.8088113 100.15530687 -125.8088113 100.15530687 -118.66079712 97.50479126 C-116.91283155 95.76028034 -115.48322379 93.96898489 -114 92 C-112.79519182 90.88964013 -111.56775308 89.80299645 -110.3125 88.75 C-106.81285858 85.73283342 -103.39740811 82.63122489 -100 79.5 C-96.72158335 76.48059246 -93.4341862 73.47797496 -90.0625 70.5625 C-86.47041409 67.45035876 -82.98448008 64.23127914 -79.5 61 C-75.41833936 57.21493463 -71.30542366 53.48434926 -67.09375 49.84375 C-64.33702974 47.41619037 -61.63856684 44.92651504 -58.9375 42.4375 C-54.69902692 38.53271795 -50.41102277 34.70926914 -46 31 C-47.2375 29.5459375 -47.2375 29.5459375 -48.5 28.0625 C-49.30824219 27.10730469 -49.30824219 27.10730469 -50.1328125 26.1328125 C-51.44388023 24.63523305 -52.79726362 23.17416062 -54.1796875 21.7421875 C-54.90414063 20.98164062 -55.62859375 20.22109375 -56.375 19.4375 C-57.40753906 18.38369141 -57.40753906 18.38369141 -58.4609375 17.30859375 C-60.47273061 14.29090409 -60.58239021 12.55639924 -60 9 C-57.25317768 6.43386401 -55.06594936 5.57039074 -51.37426758 5.10864258 C-50.46264359 4.98874466 -49.55101959 4.86884674 -48.61177063 4.74531555 C-47.63258163 4.62955673 -46.65339264 4.51379791 -45.64453125 4.39453125 C-44.62832199 4.26559982 -43.61211273 4.1366684 -42.56510925 4.00382996 C-40.41481266 3.73350113 -38.26376328 3.46910366 -36.11206055 3.21020508 C-32.84043459 2.81586703 -29.57161685 2.40273528 -26.30273438 1.98632812 C-24.20847244 1.7254434 -22.11407508 1.46564305 -20.01953125 1.20703125 C-19.05046341 1.08519974 -18.08139557 0.96336823 -17.08296204 0.83784485 C-11.35107844 0.15523989 -5.7700376 -0.38543264 0 0 Z " fill="#030303" transform="translate(407,22)"/>
<path d="M0 0 C17.82 0 35.64 0 54 0 C54 49.83 54 99.66 54 151 C48.86005999 152.71331334 43.44271188 152.18463055 38.0625 152.1875 C36.88880859 152.19974609 35.71511719 152.21199219 34.50585938 152.22460938 C24.67833015 152.2409071 15.05358656 151.5274642 5.8125 147.9375 C4.91144531 147.59589844 4.01039062 147.25429688 3.08203125 146.90234375 C1 146 1 146 0 145 C-0.09652596 143.12705216 -0.12187266 141.25041756 -0.12025452 139.37498474 C-0.12162918 138.15355774 -0.12300385 136.93213074 -0.12442017 135.6736908 C-0.12088056 134.30776953 -0.11724574 132.94184852 -0.11352539 131.57592773 C-0.11324352 130.14722699 -0.11340124 128.7185261 -0.1139679 127.28982544 C-0.11425589 123.39950028 -0.10835887 119.50920569 -0.10139394 115.61888766 C-0.0951607 111.55761795 -0.09455663 107.49634761 -0.09336853 103.43507385 C-0.09025512 95.73921067 -0.08204161 88.04336162 -0.07201904 80.34750468 C-0.06085819 71.58827886 -0.05534753 62.82905239 -0.05032361 54.06982124 C-0.039859 36.04653784 -0.02151341 18.02327383 0 0 Z " fill="#06327D" transform="translate(114,279)"/>
<path d="M0 0 C7.29913305 6.199482 13.99284849 12.87567174 14.87109375 22.703125 C15.20733292 32.93294715 13.79040165 39.55135886 7.3125 47.4375 C-1.91593894 57.20878829 -13.05988698 62.37547346 -26.5625 62.8125 C-37.41361823 62.35883743 -46.99614349 59.10239528 -55.4375 52.25 C-56.39269531 51.48042969 -56.39269531 51.48042969 -57.3671875 50.6953125 C-63.4677785 45.22310856 -66.86006655 38.68637893 -67.91796875 30.55859375 C-68.3299029 19.5254385 -65.76028305 12.58352799 -58.375 4.5 C-42.64574868 -10.31171166 -17.84480295 -12.50183846 0 0 Z " fill="#219D5D" transform="translate(440.4375,206.75)"/>
<path d="M0 0 C13.86 0 27.72 0 42 0 C42 25.08 42 50.16 42 76 C37.41265497 74.16506199 34.67802531 72.28205164 31.1875 69 C30.66196533 68.50943115 30.13643066 68.0188623 29.5949707 67.51342773 C12.81426552 51.54953937 2.71215148 29.94373026 0 7 C0 4.69 0 2.38 0 0 Z " fill="#0A357F" transform="translate(60,341)"/>
<path d="M0 0 C0.33 0 0.66 0 1 0 C1.08159574 4.16138263 0.98248524 7.9472484 0 12 C-0.99 12.33 -1.98 12.66 -3 13 C-2.68991116 11.39536551 -2.37683713 9.79130769 -2.0625 8.1875 C-1.88847656 7.29417969 -1.71445312 6.40085937 -1.53515625 5.48046875 C-1 3 -1 3 0 0 Z " fill="#55B483" transform="translate(41,302)"/>
</svg>
